<svg width="37" height="37" viewBox="0 0 37 37" fill="none" xmlns="http://www.w3.org/2000/svg">
<path d="M31.4911 5.91348C28.1972 2.72196 23.6448 0.749878 18.6291 0.749878C13.6031 0.749878 9.05042 2.72196 5.75697 5.91348C2.47307 9.10463 0.428589 13.5065 0.428589 18.377C0.428589 23.2466 2.47307 27.6489 5.75697 30.8408C9.05034 34.032 13.6031 36.0036 18.6291 36.0036C23.6448 36.0036 28.1972 34.0319 31.4911 30.8408C34.7747 27.6489 36.8195 23.2466 36.8195 18.377C36.8195 13.5065 34.7747 9.10456 31.4911 5.91348ZM30.4838 29.8639C27.4521 32.8118 23.2519 34.627 18.6291 34.627C13.9958 34.627 9.79567 32.8118 6.76401 29.8639C3.73227 26.9265 1.85898 22.8663 1.85898 18.377C1.85898 13.8872 3.73227 9.8273 6.76401 6.88953C9.79567 3.94206 13.9959 2.12646 18.6291 2.12646C23.2519 2.12646 27.4521 3.94206 30.4838 6.88953C33.5155 9.8273 35.3993 13.8872 35.3993 18.377C35.3992 22.8663 33.5155 26.9265 30.4838 29.8639Z" fill="#175873"/>
<path d="M21.6035 10.2367V10.2259C22.4892 9.3543 22.8995 8.12121 22.7822 6.91077C21.6993 6.94423 20.4239 7.58973 19.6586 8.48347C18.9764 9.2757 18.3308 10.5087 18.4955 11.7188C19.6724 11.7982 21.1607 11.1193 21.6035 10.2367ZM24.3954 17.9861C24.3954 17.149 24.6187 16.4482 24.9246 15.8934C25.5838 14.6717 26.6307 14.0612 26.7015 14.0269C25.4543 12.2165 23.5128 11.9796 22.795 11.9453C21.148 11.7869 19.5716 12.9072 18.7361 12.9072C17.9005 12.9072 16.5828 11.9796 15.2065 11.9904C13.4058 12.0355 11.7355 13.0317 10.7942 14.6148C10.4999 15.1021 10.3 15.6335 10.159 16.188C9.35872 19.2087 10.6176 22.9304 12.1592 25.1249C13.0415 26.3813 14.1239 27.8182 15.5123 27.761C16.8652 27.7167 17.3713 26.9123 19.0065 26.9123C20.6419 26.9123 21.0891 27.761 22.5248 27.727C23.9836 27.7166 24.9013 26.4376 25.7956 25.182C26.819 23.7 27.2308 22.2855 27.2661 22.2178C27.2307 22.1954 24.4306 21.1429 24.3954 17.9861Z" fill="#175873"/>
</svg>
