<svg width="38" height="36" viewBox="0 0 38 36" fill="none" xmlns="http://www.w3.org/2000/svg">
<path d="M19.174 0.749878C9.11357 0.749878 0.928589 8.6163 0.928589 18.2855C0.928589 27.9549 9.11357 35.821 19.174 35.821C29.2347 35.821 37.42 27.9549 37.42 18.2855C37.4197 8.6163 29.2344 0.749878 19.174 0.749878ZM19.174 34.0915C10.1057 34.0915 2.72814 27.0011 2.72814 18.2855C2.72814 9.57013 10.1057 2.4794 19.174 2.4794C28.2422 2.4794 35.6204 9.57013 35.6204 18.2855C35.6201 27.0011 28.2422 34.0915 19.174 34.0915Z" fill="#175873"/>
<path d="M24.7979 7.99597H20.8401C20.8308 7.99597 20.8218 7.99626 20.8131 7.99712C16.8172 8.00923 16.2953 10.6908 16.2932 13.0346C16.2878 13.0565 16.2848 13.079 16.2848 13.1024V14.7477H13.5501C13.3845 14.7477 13.2502 14.8769 13.2502 15.036V19.0937C13.2502 19.2531 13.3845 19.382 13.5501 19.382H16.2848V28.2864C16.2848 28.4458 16.4192 28.5746 16.5847 28.5746H20.5758C20.7417 28.5746 20.8758 28.4458 20.8758 28.2864V19.3822H24.7976C24.9635 19.3822 25.0975 19.2534 25.0975 19.094V15.0363C25.0975 14.8771 24.9635 14.748 24.7976 14.748H20.5758V12.5668H24.7976C24.9635 12.5668 25.0975 12.4377 25.0975 12.2785V8.28422C25.0978 8.12511 24.9635 7.99597 24.7979 7.99597Z" fill="#175873"/>
</svg>
