<svg width="36" height="36" viewBox="0 0 36 36" fill="none" xmlns="http://www.w3.org/2000/svg">
<path d="M18.1141 0.749878C8.25226 0.749878 0.228821 8.6163 0.228821 18.2855C0.228821 27.9546 8.25226 35.821 18.1141 35.821C27.9763 35.821 36 27.9546 36 18.2855C36 8.6163 27.976 0.749878 18.1141 0.749878ZM18.1141 34.0915C9.22483 34.0915 1.99286 27.0008 1.99286 18.2855C1.99286 9.57013 9.22483 2.4794 18.1141 2.4794C27.0034 2.4794 34.236 9.57013 34.236 18.2855C34.236 27.0008 27.0034 34.0915 18.1141 34.0915Z" fill="#175873"/>
<path d="M13.5429 16.8618V19.7443H17.5946C16.9728 21.3876 15.3778 22.5571 13.5082 22.5571C11.0974 22.5571 9.1431 20.6137 9.1431 18.2163C9.1431 15.8189 11.0974 13.8752 13.5082 13.8752C14.6022 13.8752 15.6007 14.2767 16.3663 14.9383L16.4104 14.9112L18.5557 12.7597C17.2418 11.5963 15.5107 10.8886 13.6129 10.8886C9.50473 10.8886 6.17422 14.2003 6.17422 18.2855C6.17422 22.3712 9.50473 25.6826 13.6129 25.6826C17.7207 25.6826 21.0518 22.3712 21.0518 18.2855C21.0518 17.7983 21.0001 17.3233 20.9101 16.8618H13.5429Z" fill="#175873"/>
<path d="M27.3054 16.9344V14.3834H25.372V16.9344H22.77V18.83H25.372V21.3801H27.3054V18.83H29.9073V16.9344H27.3054Z" fill="#175873"/>
</svg>
