<svg width="38" height="36" viewBox="0 0 38 36" fill="none" xmlns="http://www.w3.org/2000/svg">
<path d="M18.8738 0.749878C8.81334 0.749878 0.628357 8.6163 0.628357 18.2855C0.628357 27.9549 8.81334 35.821 18.8738 35.821C28.9345 35.821 37.1198 27.9549 37.1198 18.2855C37.1195 8.6163 28.9342 0.749878 18.8738 0.749878ZM18.8738 34.0915C9.80549 34.0915 2.42791 27.0011 2.42791 18.2855C2.42791 9.57013 9.80549 2.4794 18.8738 2.4794C27.942 2.4794 35.3202 9.57013 35.3202 18.2855C35.3199 27.0011 27.942 34.0915 18.8738 34.0915Z" fill="#175873"/>
<path d="M27.0219 12.5723C27.4412 12.3642 28.4453 11.7459 28.9186 10.4187C28.9186 10.4187 27.778 11.2114 26.2256 11.3048L26.1974 11.3198C25.4032 10.4868 24.2613 9.96417 22.9918 9.96417C20.59 9.96417 18.6431 11.8355 18.6431 14.1438C18.6431 14.4941 18.6884 14.8342 18.7733 15.1594L18.7523 15.1291C18.7523 15.1291 14.0945 15.3856 9.70324 10.7687C9.70324 10.7687 7.76181 13.9398 11.0859 16.3648C10.358 16.4813 9.07249 15.8517 9.07249 15.8517C9.07249 15.8517 9.14507 19.1857 12.59 20.002C12.0322 20.1421 10.9887 20.1882 10.6492 20.0487C10.6492 20.0487 11.1585 22.5899 14.6766 23.0333C13.7789 23.523 12.105 25.015 8.31998 24.7351C8.31998 24.7351 11.0379 26.88 16.0842 26.5773C21.1304 26.2747 24.794 23.0096 26.2738 19.559C27.7537 16.1083 27.3419 14.1436 27.3419 14.1436C27.3419 14.1436 28.5785 13.5198 29.4285 12.0278C29.0359 12.1408 27.5797 12.4826 27.0378 12.6092C27.0324 12.5971 27.027 12.5847 27.0219 12.5723Z" fill="#175873"/>
</svg>
